<svg width="20" height="20" viewBox="0 0 20 20" fill="none" xmlns="http://www.w3.org/2000/svg">
<path d="M17.5 6.24992V4.99992C17.5 4.55789 17.3244 4.13397 17.0118 3.82141C16.6993 3.50885 16.2754 3.33325 15.8333 3.33325H4.16667C3.72464 3.33325 3.30072 3.50885 2.98816 3.82141C2.67559 4.13397 2.5 4.55789 2.5 4.99992V16.6666C2.5 17.1086 2.67559 17.5325 2.98816 17.8451C3.30072 18.1577 3.72464 18.3333 4.16667 18.3333H7.08333" stroke="currentColor" stroke-width="1.66667" stroke-linecap="round" stroke-linejoin="round"/>
<path d="M13.3333 1.66675V5.00008" stroke="currentColor" stroke-width="1.66667" stroke-linecap="round" stroke-linejoin="round"/>
<path d="M6.66675 1.66675V5.00008" stroke="currentColor" stroke-width="1.66667" stroke-linecap="round" stroke-linejoin="round"/>
<path d="M2.5 8.33325H6.66667" stroke="currentColor" stroke-width="1.66667" stroke-linecap="round" stroke-linejoin="round"/>
<path d="M14.5833 14.5834L13.3333 13.5834V11.6667" stroke="currentColor" stroke-width="1.66667" stroke-linecap="round" stroke-linejoin="round"/>
<path d="M13.3333 18.3333C16.0947 18.3333 18.3333 16.0947 18.3333 13.3333C18.3333 10.5718 16.0947 8.33325 13.3333 8.33325C10.5718 8.33325 8.33325 10.5718 8.33325 13.3333C8.33325 16.0947 10.5718 18.3333 13.3333 18.3333Z" stroke="currentColor" stroke-width="1.66667" stroke-linecap="round" stroke-linejoin="round"/>
</svg>
