<svg width="20" height="20" viewBox="0 0 20 20" fill="none" xmlns="http://www.w3.org/2000/svg">
<path d="M10.0001 18.3334C14.6025 18.3334 18.3334 14.6025 18.3334 10.0001C18.3334 5.39771 14.6025 1.66675 10.0001 1.66675C5.39771 1.66675 1.66675 5.39771 1.66675 10.0001C1.66675 14.6025 5.39771 18.3334 10.0001 18.3334Z" stroke="currentColor" stroke-width="1.66667" stroke-linecap="round" stroke-linejoin="round"/>
<path d="M4.1084 4.1084L7.64173 7.64173" stroke="currentColor" stroke-width="1.66667" stroke-linecap="round" stroke-linejoin="round"/>
<path d="M12.3584 7.64173L15.8917 4.1084" stroke="currentColor" stroke-width="1.66667" stroke-linecap="round" stroke-linejoin="round"/>
<path d="M12.3584 12.3584L15.8917 15.8917" stroke="currentColor" stroke-width="1.66667" stroke-linecap="round" stroke-linejoin="round"/>
<path d="M7.64173 12.3584L4.1084 15.8917" stroke="currentColor" stroke-width="1.66667" stroke-linecap="round" stroke-linejoin="round"/>
<path d="M10.0001 13.3334C11.841 13.3334 13.3334 11.841 13.3334 10.0001C13.3334 8.15913 11.841 6.66675 10.0001 6.66675C8.15913 6.66675 6.66675 8.15913 6.66675 10.0001C6.66675 11.841 8.15913 13.3334 10.0001 13.3334Z" stroke="currentColor" stroke-width="1.66667" stroke-linecap="round" stroke-linejoin="round"/>
</svg>
